<?xml version="1.0" standalone="no"?>
<!DOCTYPE svg PUBLIC "-//W3C//DTD SVG 20010904//EN"
 "http://www.w3.org/TR/2001/REC-SVG-20010904/DTD/svg10.dtd">
<svg version="1.0" xmlns="http://www.w3.org/2000/svg"
 width="1280.000000pt" height="1280.000000pt" viewBox="0 0 1280.000000 1280.000000"
 preserveAspectRatio="xMidYMid meet">
<metadata>
Created by potrace 1.15, written by Peter Selinger 2001-2017
</metadata>
<g transform="translate(0.000000,1280.000000) scale(0.100000,-0.100000)"
fill="#000000" stroke="none">
<path d="M6060 12710 c-736 -51 -1433 -219 -2130 -515 -196 -83 -570 -269
-755 -375 -1042 -600 -1821 -1435 -2378 -2550 -414 -827 -630 -1614 -688
-2494 -15 -227 -6 -775 15 -986 67 -647 226 -1268 476 -1860 85 -201 270 -574
380 -765 542 -941 1281 -1681 2220 -2220 1616 -929 3460 -1132 5189 -573 703
227 1437 611 1986 1039 597 465 1067 999 1464 1664 120 201 330 616 424 837
288 682 448 1359 498 2108 14 217 6 734 -15 950 -82 818 -294 1545 -673 2305
-693 1388 -1722 2337 -3198 2950 -609 252 -1212 404 -1875 470 -183 19 -756
28 -940 15z m885 -1064 c635 -71 1193 -228 1771 -499 577 -271 1011 -568 1433
-982 406 -399 725 -841 993 -1380 698 -1399 767 -2930 196 -4358 -130 -326
-352 -750 -538 -1027 -308 -460 -714 -888 -1155 -1215 -482 -359 -1098 -668
-1679 -845 -1406 -425 -2884 -252 -4191 492 -280 159 -560 353 -789 546 -135
113 -433 410 -549 546 -533 622 -937 1411 -1136 2217 -100 405 -140 710 -148
1134 -10 502 34 904 148 1364 244 981 800 1949 1490 2593 392 366 779 628
1302 883 633 308 1249 480 1934 540 205 18 721 13 918 -9z"/>
<path d="M5720 9929 c-230 -11 -610 -43 -818 -69 -156 -20 -441 -66 -474 -76
-17 -5 -18 -180 -18 -3490 l0 -3484 460 0 460 0 0 1530 0 1530 488 0 c362 0
514 -4 593 -15 576 -76 892 -350 1099 -951 50 -144 79 -259 165 -649 157 -711
283 -1171 379 -1387 l26 -58 474 0 474 0 -33 78 c-98 233 -246 776 -459 1682
-95 407 -150 577 -261 808 -62 127 -138 254 -212 352 -55 73 -192 207 -275
270 -73 55 -263 159 -316 173 -45 11 -21 38 62 68 389 142 751 428 970 766
455 705 350 1753 -231 2303 -519 492 -1278 676 -2553 619z m820 -720 c63 -6
170 -21 236 -34 588 -118 946 -436 1056 -940 25 -116 36 -398 19 -516 -36
-253 -140 -487 -294 -658 -213 -237 -513 -391 -897 -462 -120 -22 -151 -23
-727 -27 l-603 -3 0 1285 0 1285 38 10 c246 65 799 93 1172 60z"/>
</g>
</svg>
